<svg viewBox="0 0 512 512" fill="none" xmlns="http://www.w3.org/2000/svg">
<path d="M256 512C114.837 512 0 397.163 0 256C0 114.837 114.837 0 256 0C270.464 0 285.099 1.28 299.456 3.79733C304.491 4.69333 308.8 7.91467 311.061 12.5013C313.301 17.088 313.237 22.4853 310.848 27.008C305.835 36.5013 303.296 46.848 303.296 57.728C303.296 94.9333 333.568 125.205 370.773 125.205C375.936 125.205 381.547 124.352 387.52 122.667C392.299 121.28 397.525 122.261 401.515 125.312C405.525 128.341 407.851 133.056 407.851 138.069L407.68 141.248C407.659 166.912 428.565 187.819 454.272 187.819C463.296 187.819 471.915 185.323 479.147 180.608C483.435 177.792 488.832 177.259 493.611 179.072C498.411 180.907 502.037 184.939 503.339 189.888C509.077 211.541 512 233.771 512 256C512 397.163 397.163 512 256 512Z" fill="#90A4AE"/>
<path d="M149.333 192C125.803 192 106.667 172.864 106.667 149.333C106.667 125.803 125.803 106.667 149.333 106.667C172.864 106.667 192 125.803 192 149.333C192 172.864 172.864 192 149.333 192Z" fill="white"/>
<path d="M192 426.667C168.469 426.667 149.333 407.531 149.333 384C149.333 360.469 168.469 341.333 192 341.333C215.531 341.333 234.667 360.469 234.667 384C234.667 407.531 215.531 426.667 192 426.667Z" fill="white"/>
<path d="M384 320C360.469 320 341.333 300.864 341.333 277.333C341.333 253.803 360.469 234.667 384 234.667C407.531 234.667 426.667 253.803 426.667 277.333C426.667 300.864 407.531 320 384 320Z" fill="white"/>
<path d="M96 288C90.5386 288 85.0773 285.909 80.9173 281.749L70.2506 271.083C61.9093 262.741 61.9093 249.259 70.2506 240.917C78.592 232.576 92.0746 232.576 100.416 240.917L111.083 251.584C119.424 259.925 119.424 273.408 111.083 281.749C106.923 285.909 101.461 288 96 288Z" fill="white"/>
<path d="M288 330.667C282.539 330.667 277.077 328.576 272.917 324.416L262.251 313.749C253.909 305.408 253.909 291.925 262.251 283.584C270.592 275.243 284.075 275.243 292.416 283.584L303.083 294.251C311.424 302.592 311.424 316.075 303.083 324.416C298.923 328.576 293.461 330.667 288 330.667V330.667Z" fill="white"/>
<path d="M309.333 416C303.872 416 298.411 413.909 294.251 409.749C285.909 401.408 285.909 387.925 294.251 379.584L304.917 368.917C313.259 360.576 326.741 360.576 335.083 368.917C343.424 377.259 343.424 390.741 335.083 399.083L324.416 409.749C320.256 413.909 314.795 416 309.333 416V416Z" fill="white"/>
<path d="M266.667 224C261.205 224 255.744 221.909 251.584 217.749C243.243 209.408 243.243 195.925 251.584 187.584L262.251 176.917C270.592 168.576 284.075 168.576 292.416 176.917C300.757 185.259 300.757 198.741 292.416 207.083L281.749 217.749C277.589 221.909 272.128 224 266.667 224V224Z" fill="white"/>
<path d="M181.333 288C175.872 288 170.411 285.909 166.251 281.749C157.909 273.408 157.909 259.925 166.251 251.584L176.917 240.917C185.259 232.576 198.741 232.576 207.083 240.917C215.424 249.259 215.424 262.741 207.083 271.083L196.416 281.749C192.256 285.909 186.795 288 181.333 288V288Z" fill="white"/>
</svg>
