<svg width="512" height="512" viewBox="0 0 512 512" fill="none" xmlns="http://www.w3.org/2000/svg">
<path fill-rule="evenodd" clip-rule="evenodd" d="M256 512C397.385 512 512 397.385 512 256C512 114.615 397.385 0 256 0C114.615 0 0 114.615 0 256C0 397.385 114.615 512 256 512Z" fill="#2c475d"/>
<path d="M151.333 192C127.803 192 108.667 172.864 108.667 149.333C108.667 125.803 127.803 106.667 151.333 106.667C174.864 106.667 194 125.803 194 149.333C194 172.864 174.864 192 151.333 192Z" fill="white"/>
<path d="M194 426.667C170.469 426.667 151.333 407.531 151.333 384C151.333 360.469 170.469 341.333 194 341.333C217.531 341.333 236.667 360.469 236.667 384C236.667 407.531 217.531 426.667 194 426.667Z" fill="white"/>
<path d="M386 320C362.469 320 343.333 300.864 343.333 277.333C343.333 253.803 362.469 234.667 386 234.667C409.531 234.667 428.667 253.803 428.667 277.333C428.667 300.864 409.531 320 386 320Z" fill="white"/>
<path d="M98 288C92.5386 288 87.0773 285.909 82.9173 281.749L72.2506 271.083C63.9093 262.741 63.9093 249.259 72.2506 240.917C80.592 232.576 94.0746 232.576 102.416 240.917L113.083 251.584C121.424 259.925 121.424 273.408 113.083 281.749C108.923 285.909 103.461 288 98 288Z" fill="white"/>
<path d="M290 330.667C284.539 330.667 279.077 328.576 274.917 324.416L264.251 313.749C255.909 305.408 255.909 291.925 264.251 283.584C272.592 275.243 286.075 275.243 294.416 283.584L305.083 294.251C313.424 302.592 313.424 316.075 305.083 324.416C300.923 328.576 295.461 330.667 290 330.667V330.667Z" fill="white"/>
<path d="M311.333 416C305.872 416 300.411 413.909 296.251 409.749C287.909 401.408 287.909 387.925 296.251 379.584L306.917 368.917C315.259 360.576 328.741 360.576 337.083 368.917C345.424 377.259 345.424 390.741 337.083 399.083L326.416 409.749C322.256 413.909 316.795 416 311.333 416V416Z" fill="white"/>
<path d="M259.005 123.339C253.544 123.339 248.083 121.248 243.923 117.088L233.256 106.421C224.915 98.08 224.915 84.5973 233.256 76.256C241.597 67.9147 255.08 67.9147 263.421 76.256L274.088 86.9227C282.429 95.264 282.429 108.747 274.088 117.088C269.928 121.248 264.467 123.339 259.005 123.339Z" fill="white"/>
<path d="M391.005 192.339C385.544 192.339 380.083 190.248 375.923 186.088L365.256 175.421C356.915 167.08 356.915 153.597 365.256 145.256C373.597 136.915 387.08 136.915 395.421 145.256L406.088 155.923C414.429 164.264 414.429 177.747 406.088 186.088C401.928 190.248 396.467 192.339 391.005 192.339V192.339Z" fill="white"/>
<path d="M268.667 224C263.205 224 257.744 221.909 253.584 217.749C245.243 209.408 245.243 195.925 253.584 187.584L264.251 176.917C272.592 168.576 286.075 168.576 294.416 176.917C302.757 185.259 302.757 198.741 294.416 207.083L283.749 217.749C279.589 221.909 274.128 224 268.667 224V224Z" fill="white"/>
<path d="M183.333 288C177.872 288 172.411 285.909 168.251 281.749C159.909 273.408 159.909 259.925 168.251 251.584L178.917 240.917C187.259 232.576 200.741 232.576 209.083 240.917C217.424 249.259 217.424 262.741 209.083 271.083L198.416 281.749C194.256 285.909 188.795 288 183.333 288V288Z" fill="white"/>
</svg>
